grf
version=1
nRows=7
nColumns=37
inDegrees=no
endheader
time	ground_force_1_vx	ground_force_1_vy	ground_force_1_vz	ground_force_1_px	ground_force_1_py	ground_force_1_pz	ground_moment_1_mx	ground_moment_1_my	ground_moment_1_mz	ground_force_2_vx	ground_force_2_vy	ground_force_2_vz	ground_force_2_px	ground_force_2_py	ground_force_2_pz	ground_moment_2_mx	ground_moment_2_my	ground_moment_2_mz	ground_force_3_vx	ground_force_3_vy	ground_force_3_vz	ground_force_3_px	ground_force_3_py	ground_force_3_pz	ground_moment_3_mx	ground_moment_3_my	ground_moment_3_mz	ground_force_4_vx	ground_force_4_vy	ground_force_4_vz	ground_force_4_px	ground_force_4_py	ground_force_4_pz	ground_moment_4_mx	ground_moment_4_my	ground_moment_4_mz
      2.94000000	      0.00000000	     -0.00000000	      0.00000000	      0.00000000	      0.00000000	      0.00000000	      0.00000000	      0.00000000	      0.00000000	     52.92522812	     73.19301605	   -608.46179199	   -309.68924063	  -1079.12587774	      0.00000000	      0.00000000	      0.00000000	   7977.26915748	     60.91254190	    -70.56722029	   -684.56134033	   -327.97499753	   -649.89874302	      0.00000000	      0.00000000	     -0.00000000	 -13178.61962745	    -35.29565288	     16.18591617	     74.78643036	    607.93499589	   -566.34860577	      0.00000000	      0.00000000	      0.00000000	     93.70334249
      2.95000000	      0.00000000	     -0.00000000	      0.00000000	      0.00000000	      0.00000000	      0.00000000	      0.00000000	      0.00000000	      0.00000000	     49.17226410	     76.01960754	   -610.06707764	   -306.16242591	  -1079.32713328	      0.00000000	      0.00000000	      0.00000000	   7110.40946643	     60.21162893	    -76.15618660	   -687.89593506	   -325.81871364	   -649.34812387	      0.00000000	      0.00000000	     -0.00000000	 -12635.80452366	    -35.49756482	     16.07274366	     75.20643616	    608.11909754	   -564.88172034	      0.00000000	      0.00000000	      0.00000000	     25.46297833
      2.96000000	      0.00000000	     -0.00000000	      0.00000000	      0.00000000	      0.00000000	      0.00000000	      0.00000000	      0.00000000	      0.00000000	     44.30611801	     79.49559021	   -613.12036133	   -301.58486581	  -1080.12684976	      0.00000000	      0.00000000	      0.00000000	   6369.08151032	     59.27608162	    -81.10195678	   -692.59326172	   -322.73900002	   -647.86687486	      0.00000000	      0.00000000	     -0.00000000	 -12256.67246791	    -35.34113172	     16.01459812	     75.75129700	    603.08159736	   -563.00550402	      0.00000000	     -0.00000000	     -0.00000000	     69.02150954
      2.97000000	      0.00000000	     -0.00000000	      0.00000000	      0.00000000	      0.00000000	      0.00000000	      0.00000000	      0.00000000	      0.00000000	     39.91729355	     82.51712036	   -613.40368652	   -297.34931800	  -1080.16632448	      0.00000000	      0.00000000	      0.00000000	   5528.98630806	     54.01107039	    -85.65465255	   -693.76428223	   -319.30886243	   -647.47338788	      0.00000000	      0.00000000	     -0.00000000	 -11970.84193107	    -35.58664561	     16.23038603	     76.12165833	    604.64147913	   -560.77750550	      0.00000000	      0.00000000	     -0.00000000	   -181.37982251
      2.98000000	      0.00000000	     -0.00000000	      0.00000000	      0.00000000	      0.00000000	      0.00000000	      0.00000000	      0.00000000	      0.00000000	     34.82799911	     86.05989075	   -616.06915283	   -292.25603038	  -1080.90762910	      0.00000000	      0.00000000	      0.00000000	   4884.44764228	     47.74416344	    -88.15825308	   -696.55749512	   -314.37074765	   -646.16287074	      0.00000000	      0.00000000	     -0.00000000	 -11267.63623335	    -35.06771709	     16.20761796	     75.38359833	    606.43704870	   -564.70812688	      0.00000000	      0.00000000	      0.00000000	     73.66866973
      2.99000000	      0.00000000	     -0.00000000	      0.00000000	      0.00000000	      0.00000000	      0.00000000	      0.00000000	      0.00000000	      0.00000000	     30.56820297	     89.07604218	   -619.95355225	   -287.14787869	  -1081.74285764	      0.00000000	      0.00000000	      0.00000000	   4324.25782276	     40.24882069	    -93.80157823	   -696.66351318	   -308.13368913	   -644.24540606	      0.00000000	      0.00000000	     -0.00000000	 -10660.11213763	    -35.20648434	     16.15415690	     75.52656555	    607.60833180	   -562.37869922	      0.00000000	      0.00000000	     -0.00000000	   -106.27811100
      3.00000000	      0.00000000	     -0.00000000	      0.00000000	      0.00000000	      0.00000000	      0.00000000	      0.00000000	      0.00000000	      0.00000000	     24.63729858	     92.39145660	   -624.49505615	   -281.47670046	  -1082.23811454	      0.00000000	      0.00000000	      0.00000000	   3488.74043198	     29.73631945	    -99.17954514	   -696.94244385	   -301.28082501	   -642.23047646	      0.00000000	      0.00000000	     -0.00000000	  -9661.78071519	    -35.30530025	     16.15422367	     75.72129822	    602.58626605	   -562.27721373	      0.00000000	      0.00000000	      0.00000000	     17.75874083
